<?xml version="1.0"?>
<svg version="1.1" xmlns="http://www.w3.org/2000/svg" width="360" height="40" style=""><path fill="#097d2f" d="M15.7,32l0-1.7l1.5-0.6l0-9.4l-1.5-0.6l0-1.7l4.6-0.1l1.52,0c3.28,0,5.2,1.36,5.2,4.08c0,1.88-0.9,3.1-2.26,3.78c0.22,0.26,0.52,0.64,0.84,1.3l1.34,2.74l1.36,0.5l0,1.7l-3.7,0l-1.68-3.7c-0.68-1.52-0.86-1.84-1.92-1.84l-0.7,0l0,3.24l1.44,0.6l0,1.7l-6.04,0z M20.3,24.36l1.14,0c1.58,0,2.5-0.76,2.5-2.1c0-1.14-0.76-1.96-2-1.96l-1.64,0l0,4.06z M35.9902,21c3.24,0,5.04,1.96,5.04,5.4c0,3.6-2.1,5.8-5.34,5.8c-3.26,0-5.1-1.7-5.1-5.5c0-3.6,2.14-5.7,5.4-5.7z M35.8902,23.4c-1.46,0-2.2,0.8-2.2,3.2c0,2.2,0.64,3.2,2.1,3.2c1.44,0,2.14-0.9,2.14-3.3c0-2.04-0.6-3.1-2.04-3.1z M52.3204,28.74l1,1.76c-0.5,0.44-2.06,1.7-4.3,1.7c-3.3,0-5.2-2.04-5.2-5.44c0-3.56,2-5.76,5.5-5.76c1.72,0,3.5,0.7,3.5,0.7l-0.1,3.28l-1.8,0l-0.28-1.42s-0.58-0.16-1.38-0.16c-1.44,0-2.34,0.96-2.34,2.96c0,2.18,0.84,3.44,2.5,3.44c1.4,0,2.28-0.7,2.9-1.06z M60.0106,25.22l1.32,0l1.36-2.04l-0.88-0.28l0-1.6l5.16-0.1l0,1.7l-1.4,0.26l-1.86,2.62l2.24,4.14l1.52,0.48l0,1.6l-3.7,0l-2.48-4.88l-1.28,0l0,2.78l1.1,0.5l0,1.6l-5.7,0l0-1.6l1.6-0.5l0-11.24l-1.6-0.4l0-1.6l4.6-0.16l0,8.72z M69.1608,22.9l0-1.6l5.34-0.1l0,1.7l-1.12,0.2l1.78,5.6l1.7-5.54l-1.16-0.26l0-1.6l5.38-0.1l0,1.7l-1.24,0.26l-2.94,8.2c-0.96,2.64-2.26,5.44-5.44,5.44c-0.68,0-1.94-0.16-1.94-0.16l0.28-2.14l1.3,0c1.6,0,2.34-1.7,2.68-2.48l-3.56-8.8z M89.2612,32l0-1.7l1.5-0.6l0-9.4l-1.5-0.6l0-1.7l5.16-0.1l3,6.66l3.14-6.56l4.8-0.1l0,1.8l-1.44,0.6l0,9.4l1.5,0.6l0,1.7l-5.96,0l0-1.7l1.56-0.6l0-7.52l-0.54,1.32l-2.26,4.7l-2.16,0.1l-2.3-4.74l-0.34-1.04l0,7.18l1.54,0.6l0,1.7l-5.7,0z M113.6114,21c3.24,0,5.04,1.96,5.04,5.4c0,3.6-2.1,5.8-5.34,5.8c-3.26,0-5.1-1.7-5.1-5.5c0-3.6,2.14-5.7,5.4-5.7z M113.5114,23.4c-1.46,0-2.2,0.8-2.2,3.2c0,2.2,0.64,3.2,2.1,3.2c1.44,0,2.14-0.9,2.14-3.3c0-2.04-0.6-3.1-2.04-3.1z M121.0416,22.9l0-1.6l4.6-0.1l0,6.9c0,1.1,0.32,1.6,1.22,1.6c1.3,0,2.26-1.08,2.26-1.08l0-5.22l-1.6-0.5l0-1.6l4.6-0.1l0,8.7l1.6,0.4l0,1.56l-4.22,0.14l-0.2-1.4s-1.6,1.6-3.5,1.6c-2,0-3.16-1.34-3.16-3.58l0-5.22z M140.4518,21.2l0.14,1.38s1.9-1.54,3.68-1.54c1.94,0,3.04,1.38,3.04,3.56l0,5.3l1.4,0.5l0,1.6l-5.5,0l0-1.6l1.1-0.5l0-4.76c0-0.92-0.52-1.6-1.36-1.6c-1.24,0-2.14,1.14-2.14,1.14l0,5.22l1.1,0.5l0,1.6l-5.7,0l0-1.6l1.6-0.5l0-6.5l-1.6-0.5l0-1.6z M158.402,29.44l0.72,1.52c-0.98,0.72-2.1,1.24-3.4,1.24c-2.3,0-2.96-1.6-2.96-3.9l0-4.6l-1.86,0l0-1.94l1.86-0.26l0-2.76l3-0.54l0,3.3l2.8,0l0,2.2l-2.8,0l0,4.4c0,1.28,0.22,1.8,1.06,1.8c0.54,0,1.32-0.32,1.58-0.46z M168.2322,32l-0.36-1.3s-1.54,1.5-3.24,1.5c-1.94,0-3.12-1.14-3.12-3.14c0-2.36,1.78-3.3,4.82-3.3l1.4,0l0-1.1c0-1.02-0.54-1.46-1.54-1.46c-1.02,0-1.76,0.3-1.76,0.3l-0.3,1.26l-1.8,0l-0.14-2.96s2.42-0.8,4.34-0.8c3.04,0,4.2,1.06,4.2,3.96l0,4.94l1.5,0.36l0,1.6z M167.7322,27.46l-1.14,0c-1.56,0-2.18,0.4-2.18,1.3c0,0.76,0.42,1.2,1.18,1.2c1.06,0,2.14-1.16,2.14-1.16l0-1.34z M176.0624,17.9c0-1.14,0.82-1.8,1.72-1.8c1.04,0,1.68,0.54,1.68,1.8c0,1.18-0.86,1.82-1.68,1.82c-1.08,0-1.72-0.64-1.72-1.82z M179.4224,29.9l1.4,0.5l0,1.6l-6,0l0-1.6l1.6-0.5l0-6.5l-1.6-0.5l0-1.6l4.6-0.1l0,8.7z M187.7526,21.2l0.14,1.38s1.9-1.54,3.68-1.54c1.94,0,3.04,1.38,3.04,3.56l0,5.3l1.4,0.5l0,1.6l-5.5,0l0-1.6l1.1-0.5l0-4.76c0-0.92-0.52-1.6-1.36-1.6c-1.24,0-2.14,1.14-2.14,1.14l0,5.22l1.1,0.5l0,1.6l-5.7,0l0-1.6l1.6-0.5l0-6.5l-1.6-0.5l0-1.6z M204.693,32l0-1.7l1.5-0.6l0-9.4l-1.5-0.6l0-1.7l4.6-0.1l1.52,0c3.28,0,5.2,1.36,5.2,4.08c0,1.88-0.9,3.1-2.26,3.78c0.22,0.26,0.52,0.64,0.84,1.3l1.34,2.74l1.36,0.5l0,1.7l-3.7,0l-1.68-3.7c-0.68-1.52-0.86-1.84-1.92-1.84l-0.7,0l0,3.24l1.44,0.6l0,1.7l-6.04,0z M209.293,24.36l1.14,0c1.58,0,2.5-0.76,2.5-2.1c0-1.14-0.76-1.96-2-1.96l-1.64,0l0,4.06z M229.3432,27.26l-6.64,0c0.12,1.6,1.04,2.54,2.42,2.54c1.66,0,3.36-0.94,3.36-0.94l0.86,1.66s-2,1.68-4.56,1.68c-3.44,0-5.2-2-5.2-5.4c0-3.5,1.98-5.8,5.34-5.8c2.98,0,4.54,1.84,4.54,4.7c0,0.76-0.12,1.5-0.12,1.56z M222.7432,25.4l3.62,0c0-1.14-0.48-2-1.64-2c-1.12,0-1.82,0.82-1.98,2z M234.1134,28.5l0.16,1.3s0.7,0.2,1.68,0.2c1.1,0,1.64-0.34,1.64-0.98c0-1.64-5.34-1.04-5.34-4.6c0-2.5,2-3.42,4.12-3.42c1.8,0,3.72,0.6,3.72,0.6l-0.08,3l-1.7,0l-0.3-1.2s-0.58-0.2-1.38-0.2c-0.86,0-1.38,0.36-1.38,1.02c0,1.62,5.34,0.92,5.34,4.38c0,2.3-1.86,3.6-4.6,3.6c-1.9,0-3.68-0.44-3.68-0.44l0-3.26l1.8,0z M253.1436,27.26l-6.64,0c0.12,1.6,1.04,2.54,2.42,2.54c1.66,0,3.36-0.94,3.36-0.94l0.86,1.66s-2,1.68-4.56,1.68c-3.44,0-5.2-2-5.2-5.4c0-3.5,1.98-5.8,5.34-5.8c2.98,0,4.54,1.84,4.54,4.7c0,0.76-0.12,1.5-0.12,1.56z M246.5436,25.4l3.62,0c0-1.14-0.48-2-1.64-2c-1.12,0-1.82,0.82-1.98,2z M260.2538,21.2l0.18,1.38s1.44-1.58,2.78-1.58c1.1,0,1.86,0.36,1.86,0.36l-0.16,3.84l-1.8,0l-0.3-1.7c-1.16,0-2.16,1.12-2.16,1.12l0,5.28l2,0.5l0,1.6l-6.6,0l0-1.6l1.6-0.5l0-6.5l-1.6-0.5l0-1.6z M273.204,22.9l0-1.6l5.24-0.1l0,1.7l-1.14,0.26l-3.22,8.84l-3.3,0l-3.16-8.78l-0.96-0.32l0-1.6l5.24-0.1l0,1.7l-1.12,0.2l1.82,5.9l1.76-5.84z M287.4542,32l-0.36-1.3s-1.54,1.5-3.24,1.5c-1.94,0-3.12-1.14-3.12-3.14c0-2.36,1.78-3.3,4.82-3.3l1.4,0l0-1.1c0-1.02-0.54-1.46-1.54-1.46c-1.02,0-1.76,0.3-1.76,0.3l-0.3,1.26l-1.8,0l-0.14-2.96s2.42-0.8,4.34-0.8c3.04,0,4.2,1.06,4.2,3.96l0,4.94l1.5,0.36l0,1.6z M286.9542,27.46l-1.14,0c-1.56,0-2.18,0.4-2.18,1.3c0,0.76,0.42,1.2,1.18,1.2c1.06,0,2.14-1.16,2.14-1.16l0-1.34z M301.1444,29.44l0.72,1.52c-0.98,0.72-2.1,1.24-3.4,1.24c-2.3,0-2.96-1.6-2.96-3.9l0-4.6l-1.86,0l0-1.94l1.86-0.26l0-2.76l3-0.54l0,3.3l2.8,0l0,2.2l-2.8,0l0,4.4c0,1.28,0.22,1.8,1.06,1.8c0.54,0,1.32-0.32,1.58-0.46z M305.3946,17.9c0-1.14,0.82-1.8,1.72-1.8c1.04,0,1.68,0.54,1.68,1.8c0,1.18-0.86,1.82-1.68,1.82c-1.08,0-1.72-0.64-1.72-1.82z M308.7546,29.9l1.4,0.5l0,1.6l-6,0l0-1.6l1.6-0.5l0-6.5l-1.6-0.5l0-1.6l4.6-0.1l0,8.7z M318.2448,21c3.24,0,5.04,1.96,5.04,5.4c0,3.6-2.1,5.8-5.34,5.8c-3.26,0-5.1-1.7-5.1-5.5c0-3.6,2.14-5.7,5.4-5.7z M318.1448,23.4c-1.46,0-2.2,0.8-2.2,3.2c0,2.2,0.64,3.2,2.1,3.2c1.44,0,2.14-0.9,2.14-3.3c0-2.04-0.6-3.1-2.04-3.1z M330.315,21.2l0.14,1.38s1.9-1.54,3.68-1.54c1.94,0,3.04,1.38,3.04,3.56l0,5.3l1.4,0.5l0,1.6l-5.5,0l0-1.6l1.1-0.5l0-4.76c0-0.92-0.52-1.6-1.36-1.6c-1.24,0-2.14,1.14-2.14,1.14l0,5.22l1.1,0.5l0,1.6l-5.7,0l0-1.6l1.6-0.5l0-6.5l-1.6-0.5l0-1.6z M343.0252,28.5l0.16,1.3s0.7,0.2,1.68,0.2c1.1,0,1.64-0.34,1.64-0.98c0-1.64-5.34-1.04-5.34-4.6c0-2.5,2-3.42,4.12-3.42c1.8,0,3.72,0.6,3.72,0.6l-0.08,3l-1.7,0l-0.3-1.2s-0.58-0.2-1.38-0.2c-0.86,0-1.38,0.36-1.38,1.02c0,1.62,5.34,0.92,5.34,4.38c0,2.3-1.86,3.6-4.6,3.6c-1.9,0-3.68-0.44-3.68-0.44l0-3.26l1.8,0z"/><path fill="#" d=""/></svg>
